<svg width="467" height="464" viewBox="0 0 467 464" fill="none" xmlns="http://www.w3.org/2000/svg">
<g id="Clipboard-Management-Project-Setting-List">
<path id="Vector" d="M424 96V432C424 440.487 420.629 448.626 414.627 454.627C408.626 460.629 400.487 464 392 464H120C113.076 464 106.339 461.754 100.8 457.6C98.6057 455.979 96.6411 454.068 94.96 451.92C90.469 446.25 88.0174 439.233 88 432V96C88 87.5131 91.3714 79.3737 97.3726 73.3726C103.374 67.3714 111.513 64 120 64H392C400.487 64 408.626 67.3714 414.627 73.3726C420.629 79.3737 424 87.5131 424 96Z" fill="#A97C50"/>
<path id="Vector_2" d="M392 104V368H344C339.76 368.013 335.698 369.702 332.7 372.7C329.702 375.698 328.013 379.76 328 384V432H128C125.878 432 123.843 431.157 122.343 429.657C120.843 428.157 120 426.122 120 424V104C120 101.878 120.843 99.8434 122.343 98.3431C123.843 96.8429 125.878 96 128 96H384C386.122 96 388.157 96.8429 389.657 98.3431C391.157 99.8434 392 101.878 392 104Z" fill="#E6E7E8"/>
<path id="Vector_3" d="M424 186.8L392 218.784V309.2L424 277.2V186.8Z" fill="#8B5E3C"/>
<path id="Vector_4" d="M197.44 395.76C195.566 403.133 192.628 410.193 188.72 416.72L200.16 432H128C125.878 432 123.843 431.157 122.343 429.657C120.843 428.157 120 426.122 120 424V272H136L139.76 298.56C147.133 300.434 154.193 303.372 160.72 307.28L182.24 291.12L204.88 313.76L188.72 335.28C192.628 341.807 195.566 348.867 197.44 356.24L224 360V392L197.44 395.76Z" fill="#D8D7DA"/>
<path id="Vector_5" d="M392 368L328 432V384C328.013 379.76 329.702 375.698 332.7 372.7C335.698 369.702 339.76 368.013 344 368H392Z" fill="#D1D3D4"/>
<path id="Vector_6" d="M392 368V424C392 426.122 391.157 428.157 389.657 429.657C388.157 431.157 386.122 432 384 432H328L392 368Z" fill="#E6E7E8"/>
<g id="pen">
<path id="Vector_7" d="M286.64 324.08L280.96 352.4L264 369.36C261.027 372.377 259.36 376.444 259.36 380.68C259.36 384.916 261.027 388.983 264 392C265.486 393.488 267.251 394.668 269.193 395.473C271.135 396.278 273.217 396.693 275.32 396.693C277.423 396.693 279.505 396.278 281.447 395.473C283.389 394.668 285.154 393.488 286.64 392L303.6 375.04L331.92 369.36L337.52 363.68L392 309.2V218.8L286.64 324.08Z" fill="#D8D7DA"/>
<path id="Vector_8" d="M457.28 166.72C454.326 163.739 450.812 161.371 446.941 159.751C443.07 158.131 438.917 157.292 434.72 157.28C431.061 157.274 427.43 157.924 424 159.2C419.508 160.771 415.432 163.342 412.08 166.72L400.72 178L424 201.28L446 223.28L457.28 211.92C460.264 208.961 462.633 205.441 464.25 201.562C465.866 197.683 466.698 193.522 466.698 189.32C466.698 185.118 465.866 180.957 464.25 177.078C462.633 173.199 460.264 169.679 457.28 166.72V166.72Z" fill="#E6E7E8"/>
<path id="Vector_9" d="M424 201.28L400.72 178L392 186.72V186.8L383.76 194.96L392 203.2L406.4 217.6L424 235.2L429.04 240.24L446 223.28L424 201.28Z" fill="#FFA733"/>
<path id="Vector_10" d="M287.6 359.04L270.64 376C268.398 378.229 265.546 379.744 262.443 380.353C259.341 380.962 256.128 380.639 253.209 379.423C250.291 378.208 247.798 376.155 246.045 373.524C244.292 370.893 243.358 367.802 243.36 364.64C243.351 362.547 243.756 360.472 244.553 358.536C245.349 356.6 246.521 354.841 248 353.36L264.96 336.4L287.6 359.04Z" fill="#787680"/>
<path id="Vector_11" d="M321.52 347.68L315.92 353.36L287.6 359.04L264.96 336.4L270.64 308.08L276.32 302.48L298.88 325.12H298.96L321.52 347.68Z" fill="#898890"/>
<path id="Vector_12" d="M392 203.2L383.76 194.96L276.32 302.48L298.88 325.12H298.96L392 232L406.4 217.6L392 203.2Z" fill="#00CCB3"/>
<path id="Vector_13" d="M424 235.2L406.4 217.6L392 232L298.96 325.12L321.52 347.68L392 277.2L424 245.2L429.04 240.24L424 235.2Z" fill="#00B39D"/>
</g>
<path id="Vector_14" d="M226.24 189.76C230.321 195.643 232.312 202.725 231.892 209.873C231.473 217.021 228.669 223.822 223.928 229.187C219.188 234.553 212.784 238.174 205.742 239.471C198.701 240.767 191.427 239.665 185.086 236.34C178.745 233.015 173.702 227.659 170.765 221.129C167.827 214.599 167.164 207.273 168.882 200.322C170.6 193.371 174.6 187.197 180.241 182.787C185.883 178.378 192.84 175.988 200 176C205.158 176.015 210.236 177.273 214.804 179.668C219.372 182.064 223.295 185.525 226.24 189.76V189.76Z" fill="#FF5023"/>
<path id="Vector_15" d="M168 104H344V128H168V104Z" fill="#FFA733"/>
<path id="Vector_16" d="M333.12 64C327.286 58.8551 319.778 56.0112 312 56H288V32C288 23.5131 284.629 15.3737 278.627 9.37258C272.626 3.37142 264.487 0 256 0C247.513 0 239.374 3.37142 233.373 9.37258C227.371 15.3737 224 23.5131 224 32V56H200C191.519 56.019 183.391 59.3965 177.394 65.3936C171.397 71.3906 168.019 79.5189 168 88V104H344V88C344.002 83.4551 343.033 78.9623 341.156 74.8229C339.28 70.6836 336.54 66.9934 333.12 64V64Z" fill="#FF9811"/>
<path id="Vector_17" d="M204.88 438.24L195.12 448L182.24 460.88L165.12 448L160.72 444.72C158.727 445.923 156.67 447.018 154.56 448C149.829 450.322 144.869 452.145 139.76 453.44L138.24 464H120C113.076 464 106.339 461.754 100.8 457.6L100.24 453.44C98.48 452.96 96.64 452.48 94.96 451.92C90.469 446.25 88.0174 439.233 88 432V302.88C91.9409 301.073 96.0377 299.627 100.24 298.56L104 272H120V424C120 426.122 120.843 428.157 122.343 429.657C123.843 431.157 125.878 432 128 432H200.16L204.88 438.24Z" fill="#8B5E3C"/>
<path id="Vector_18" d="M181.44 379.76C179.566 387.133 176.628 394.193 172.72 400.72L188.88 422.24L179.12 432L166.24 444.88L149.12 432L144.72 428.72C142.727 429.923 140.67 431.018 138.56 432C133.829 434.322 128.869 436.145 123.76 437.44L120 464H88L84.24 437.44C76.8673 435.566 69.8066 432.628 63.28 428.72L41.76 444.88L19.12 422.24L35.28 400.72C31.3718 394.193 28.4344 387.133 26.56 379.76L0 376V344L26.56 340.24C28.4344 332.867 31.3718 325.807 35.28 319.28L19.12 297.76L41.76 275.12L63.28 291.28C69.8066 287.372 76.8673 284.434 84.24 282.56L88 256H120L123.76 282.56C131.133 284.434 138.193 287.372 144.72 291.28L166.24 275.12L188.88 297.76L172.72 319.28C176.628 325.807 179.566 332.867 181.44 340.24L208 344V376L181.44 379.76Z" fill="#FF9811"/>
<path id="Vector_19" d="M120 323.28C114.943 321.116 109.5 320 104 320C98.4998 320 93.0566 321.116 88 323.28C80.8634 326.406 74.7924 331.544 70.5293 338.065C66.2662 344.587 63.9958 352.209 63.9958 360C63.9958 367.791 66.2662 375.414 70.5293 381.935C74.7924 388.456 80.8634 393.594 88 396.72C93.0566 398.884 98.4998 400 104 400C109.5 400 114.943 398.884 120 396.72C127.137 393.594 133.208 388.456 137.471 381.935C141.734 375.414 144.004 367.791 144.004 360C144.004 352.209 141.734 344.587 137.471 338.065C133.208 331.544 127.137 326.406 120 323.28Z" fill="#FFD422"/>
<path id="Vector_20" d="M248 24H264V40H248V24Z" fill="#CC7400"/>
<g id="Group">
<path id="Vector_21" d="M96 280H112V296H96V280Z" fill="#EE8700"/>
<path id="Vector_22" d="M41.7305 309.064L53.0442 297.75L64.3579 309.064L53.0442 320.378L41.7305 309.064Z" fill="#EE8700"/>
<path id="Vector_23" d="M24 352H40V368H24V352Z" fill="#EE8700"/>
<path id="Vector_24" d="M41.72 410.878L53.0337 399.564L64.3474 410.878L53.0337 422.191L41.72 410.878Z" fill="#EE8700"/>
<path id="Vector_25" d="M96 424H112V440H96V424Z" fill="#EE8700"/>
<path id="Vector_26" d="M143.534 410.888L154.847 399.574L166.161 410.888L154.847 422.202L143.534 410.888Z" fill="#EE8700"/>
<path id="Vector_27" d="M168 352H184V368H168V352Z" fill="#EE8700"/>
<path id="Vector_28" d="M143.544 309.074L154.858 297.761L166.171 309.074L154.858 320.388L143.544 309.074Z" fill="#EE8700"/>
</g>
<path id="Vector_29" d="M194.296 210.344L234.29 170.35L245.602 181.662L205.608 221.656L194.296 210.344Z" fill="#D80027"/>
<path id="Vector_30" d="M256 184H272V200H256V184Z" fill="#C6C5CA"/>
<path id="Vector_31" d="M288 184H320V200H288V184Z" fill="#C6C5CA"/>
<path id="Vector_32" d="M256 216H304V232H256V216Z" fill="#C6C5CA"/>
</g>
</svg>
