<svg width="512" height="512" viewBox="0 0 512 512" fill="none" xmlns="http://www.w3.org/2000/svg">
<g id="desktop2 1">
<path id="Vector" d="M338.219 493.781C310.207 465.77 309.355 438.613 309.332 437.27C309.289 431.402 304.535 426.668 298.668 426.668H212.906C207.02 426.668 202.238 431.508 202.238 437.398C202.238 438.551 201.855 465.727 173.801 493.801C170.754 496.852 169.836 501.441 171.5 505.43C173.121 509.398 177.023 512 181.332 512H330.668C334.977 512 338.879 509.398 340.523 505.406C342.164 501.418 341.246 496.852 338.219 493.781V493.781Z" fill="#B0BEC5"/>
<path id="Vector_2" d="M474.668 85.332H37.332C16.7461 85.332 0 102.078 0 122.668V410.668C0 431.254 16.7461 448 37.332 448H474.668C495.254 448 512 431.254 512 410.668V122.668C512 102.078 495.254 85.332 474.668 85.332V85.332Z" fill="#607D8B"/>
<path id="Vector_3" d="M42.668 128H469.332V362.668H42.668V128Z" fill="white"/>
<g id="gear">
<path id="Vector_4" d="M334.996 116.672C335.402 113.367 336 110.102 336 106.668C336 103.23 335.402 99.9688 334.996 96.6602L354.219 82.1133C358.508 78.8711 359.703 72.9375 357.012 68.2656L339.754 38.3984C337.066 33.75 331.328 31.8086 326.379 33.8984L304.258 43.2227C298.859 39.1055 293.121 35.4766 286.785 32.832L283.84 9.34375C283.156 4.01172 278.633 0 273.258 0H238.762C233.387 0 228.844 4.01172 228.18 9.34375L225.238 32.832C218.879 35.4766 213.141 39.125 207.742 43.2227L185.645 33.8984C180.672 31.8086 174.934 33.7266 172.246 38.3984L155.008 68.2656C152.32 72.918 153.516 78.8477 157.801 82.1133L177.023 96.6602C176.598 99.9688 176 103.23 176 106.668C176 110.102 176.598 113.367 177.004 116.672L157.801 131.223C153.516 134.465 152.297 140.395 155.008 145.066L172.246 174.934C174.934 179.605 180.672 181.523 185.645 179.434L207.766 170.09C213.164 174.207 218.902 177.836 225.238 180.48L228.18 203.969C228.844 209.324 233.367 213.332 238.742 213.332H273.238C278.613 213.332 283.156 209.324 283.82 203.988L286.762 180.5C293.098 177.855 298.859 174.207 304.234 170.113L326.356 179.434C331.328 181.523 337.066 179.605 339.754 174.934L356.992 145.066C359.68 140.414 358.484 134.484 354.199 131.223L334.996 116.672Z" fill="#4CAF50"/>
</g>
<path id="Vector_5" d="M298.668 106.668C298.668 130.23 279.562 149.332 256 149.332C232.438 149.332 213.332 130.23 213.332 106.668C213.332 83.1016 232.438 64 256 64C279.562 64 298.668 83.1016 298.668 106.668V106.668Z" fill="white"/>
</g>
</svg>
