<svg width="512" height="512" viewBox="0 0 512 512" fill="none" xmlns="http://www.w3.org/2000/svg">
<g id="Group">
<path id="Vector" d="M326.62 418.957H185.379V499.023H326.62V418.957Z" fill="#95A5A5"/>
<path id="Vector_2" d="M476.69 79.448H35.31C25.944 79.445 16.961 83.165 10.339 89.787C3.717 96.409 -0.00299819 105.393 1.81311e-06 114.758V406.068C-0.00299819 415.434 3.717 424.416 10.339 431.039C16.962 437.661 25.944 441.381 35.31 441.378H476.69C486.056 441.381 495.038 437.661 501.661 431.039C508.283 424.416 512.003 415.434 512 406.068V114.758C512.003 105.392 508.283 96.409 501.661 89.787C495.038 83.165 486.055 79.446 476.69 79.448Z" fill="#BDC3C7"/>
<path id="Vector_3" d="M512 370.758V114.758C512.003 105.392 508.283 96.41 501.661 89.787C495.038 83.164 486.056 79.445 476.69 79.448H35.31C25.944 79.445 16.962 83.165 10.339 89.787C3.716 96.409 -0.00299819 105.393 1.81359e-06 114.758V370.758H512Z" fill="#35495E"/>
<g id="Group_2">
<path id="Vector_4" d="M123.586 476.69H388.414C393.289 476.69 397.242 480.642 397.242 485.518V503.173C397.242 508.048 393.29 512.001 388.414 512.001H123.586C118.711 512.001 114.758 508.049 114.758 503.173V485.518C114.759 480.642 118.711 476.69 123.586 476.69Z" fill="#BDC3C7"/>
</g>
<g id="gear">
<path id="Vector_5" d="M439.438 158.896H403.686C402.268 150.57 400.111 142.387 397.242 134.444L428.139 116.524C421.592 100.043 412.67 84.608 401.656 70.709L370.671 88.629C365.239 82.138 359.242 76.141 352.751 70.709L370.671 39.724C356.772 28.711 341.337 19.789 324.856 13.241L306.936 44.138C298.993 41.269 290.809 39.112 282.484 37.694V1.94199C264.924 -0.647006 247.079 -0.647006 229.518 1.94199V37.694C221.192 39.112 213.009 41.269 205.066 44.138L187.146 13.241C170.665 19.788 155.23 28.71 141.331 39.724L159.251 70.709C152.76 76.141 146.763 82.138 141.331 88.629L110.346 70.709C99.332 84.608 90.411 100.043 83.863 116.524L114.76 134.444C111.89 142.387 109.734 150.571 108.316 158.896H72.562C71.244 167.662 70.595 176.515 70.619 185.379H141.241C141.241 122 192.62 70.621 256 70.621C319.38 70.621 370.759 122 370.759 185.379H441.381C441.405 176.515 440.756 167.662 439.438 158.896Z" fill="#BDC3C7"/>
</g>
<path id="Vector_6" d="M158.897 282.483C158.901 302.021 148.146 319.975 130.917 329.189C113.688 338.404 92.785 337.382 76.536 326.532L105.932 282.482L158.103 273.743C158.637 276.626 158.903 279.551 158.897 282.483Z" fill="#4482C3"/>
<path id="Vector_7" d="M105.931 229.517V282.483L76.535 326.533C57.122 313.583 48.474 289.453 55.241 267.12C62.008 244.786 82.595 229.514 105.931 229.517Z" fill="#F0C419"/>
<g id="Group_3">
<path id="Vector_8" d="M158.102 273.743L105.931 282.482V229.516C131.787 229.545 153.841 248.241 158.102 273.743Z" fill="#E64C3C"/>
<path id="Vector_9" d="M459.035 229.517H264.828V264.827H459.035V229.517Z" fill="#E64C3C"/>
</g>
<path id="Vector_10" d="M264.827 264.827H203.034V335.448H264.827V264.827Z" fill="#95A5A5"/>
<path id="Vector_11" d="M264.827 229.517H203.034V264.827H264.827V229.517Z" fill="#BDC3C7"/>
<path id="Vector_12" d="M459.035 264.827H264.828V335.448H459.035V264.827Z" fill="#E6E7E8"/>
<g id="dots">
<path id="Vector_13" d="M317.793 308.965H300.138C295.263 308.965 291.31 305.013 291.31 300.137C291.31 295.262 295.262 291.309 300.138 291.309H317.793C322.668 291.309 326.621 295.261 326.621 300.137C326.621 305.013 322.668 308.965 317.793 308.965Z" fill="#95A5A5"/>
<path id="Vector_14" d="M370.759 308.965H353.104C348.229 308.965 344.276 305.013 344.276 300.137C344.276 295.262 348.228 291.309 353.104 291.309H370.759C375.634 291.309 379.587 295.261 379.587 300.137C379.586 305.013 375.634 308.965 370.759 308.965Z" fill="#95A5A5"/>
<path id="Vector_15" d="M423.724 308.965H406.069C401.194 308.965 397.241 305.013 397.241 300.137C397.241 295.262 401.193 291.309 406.069 291.309H423.724C428.599 291.309 432.552 295.261 432.552 300.137C432.552 305.013 428.599 308.965 423.724 308.965Z" fill="#95A5A5"/>
</g>
<path id="Vector_16" d="M370.759 185.379H141.241C141.241 122 192.621 70.6211 256 70.6211C319.379 70.6211 370.759 122 370.759 185.379Z" fill="#7F8C8D"/>
<path id="Vector_17" d="M459.034 194.207H52.966C48.091 194.207 44.138 190.255 44.138 185.379C44.138 180.503 48.09 176.551 52.966 176.551H459.035C463.91 176.551 467.863 180.503 467.863 185.379C467.863 190.255 463.91 194.207 459.034 194.207Z" fill="#95A5A5"/>
</g>
</svg>
